<svg xmlns="http://www.w3.org/2000/svg" viewBox="0 96 960 960">
	<path d="M240 880.614q-26.653 0-45.634-18.98-18.98-18.981-18.98-45.634t18.98-45.634q18.981-18.98 45.634-18.98t45.634 18.98q18.98 18.981 18.98 45.634t-18.98 45.634q-18.981 18.98-45.634 18.98Zm0-240q-26.653 0-45.634-18.98-18.98-18.981-18.98-45.634t18.98-45.634q18.981-18.98 45.634-18.98t45.634 18.98q18.98 18.981 18.98 45.634t-18.98 45.634q-18.981 18.98-45.634 18.98Zm0-240q-26.653 0-45.634-18.98-18.98-18.981-18.98-45.634t18.98-45.634q18.981-18.98 45.634-18.98t45.634 18.98q18.98 18.981 18.98 45.634t-18.98 45.634q-18.981 18.98-45.634 18.98Zm239.864 240q-26.71 0-45.594-18.98-18.884-18.981-18.884-45.634t18.98-45.634q18.981-18.98 45.634-18.98t45.634 18.98q18.98 18.981 18.98 45.634l-64.75 64.614Zm.136-240q-26.653 0-45.634-18.98-18.98-18.981-18.98-45.634t18.98-45.634q18.981-18.98 45.634-18.98t45.634 18.98q18.98 18.981 18.98 45.634t-18.98 45.634q-18.981 18.98-45.634 18.98ZM440 885.23v-63.845l223.539-223.539 63.845 63.845L503.845 885.23H440Zm280-484.616q-26.653 0-45.634-18.98-18.98-18.981-18.98-45.634t18.98-45.634q18.981-18.98 45.634-18.98t45.634 18.98q18.98 18.981 18.98 45.634t-18.98 45.634q-18.981 18.98-45.634 18.98Zm31.922 236.923-64.229-64.229 24.384-24q8.923-8.923 20.807-8.923 11.885 0 19.807 8.923l23.231 23.231q8.923 7.922 8.73 19.807-.192 11.884-8.73 20.807l-24 24.384Z"/>
</svg>