<svg xmlns="http://www.w3.org/2000/svg" viewBox="0 -960 960 960">
	<path d="M666.153-253.847 624-296l182.769-184L624-664l42.153-42.153L892.306-480 666.153-253.847Zm-372.306 0L67.694-480l226.153-226.153L336-664 153.231-480 336-296l-42.153 42.153Zm26.126-190.769q-15.05 0-25.204-10.18-10.153-10.181-10.153-25.231 0-15.05 10.18-25.204 10.181-10.153 25.231-10.153 15.05 0 25.204 10.18 10.153 10.181 10.153 25.231 0 15.05-10.18 25.204-10.181 10.153-25.231 10.153Zm160 0q-15.05 0-25.204-10.18-10.153-10.181-10.153-25.231 0-15.05 10.18-25.204 10.181-10.153 25.231-10.153 15.05 0 25.204 10.18 10.153 10.181 10.153 25.231 0 15.05-10.18 25.204-10.181 10.153-25.231 10.153Zm160 0q-15.05 0-25.204-10.18-10.153-10.181-10.153-25.231 0-15.05 10.18-25.204 10.181-10.153 25.231-10.153 15.05 0 25.204 10.18 10.153 10.181 10.153 25.231 0 15.05-10.18 25.204-10.181 10.153-25.231 10.153Z"/>
</svg>