<svg xmlns="http://www.w3.org/2000/svg" viewBox="0 -960 960 960">
	<path d="M380.001-380.001v-199.998h199.998v199.998H380.001ZM440-440h80v-80h-80v80Zm-69.999 290.767v-70.768h-77.692q-30.308 0-51.308-21t-21-51.308v-77.692h-70.768v-59.998h70.768v-100.002h-70.768v-59.998h70.768v-77.692q0-30.308 21-51.308t51.308-21h77.692v-70.768h59.998v70.768h100.002v-70.768h59.998v70.768h77.692q30.308 0 51.308 21t21 51.308v77.692h70.768v59.998h-70.768v100.002h70.768v59.998h-70.768v77.692q0 30.308-21 51.308t-51.308 21h-77.692v70.768h-59.998v-70.768H429.999v70.768h-59.998ZM667.691-280q4.616 0 8.463-3.846 3.846-3.847 3.846-8.463v-375.382q0-4.616-3.846-8.463-3.847-3.846-8.463-3.846H292.309q-4.616 0-8.463 3.846-3.846 3.847-3.846 8.463v375.382q0 4.616 3.846 8.463 3.847 3.846 8.463 3.846h375.382ZM480-480Z"/>
</svg>