<svg xmlns="http://www.w3.org/2000/svg" viewBox="0 96 960 960">
	<path d="M474.924 1025.23h246.615q57.922 0 98.96-41.04 41.038-41.038 41.038-98.96V353.539q0-35.076-23.23-59.46-23.231-24.385-58.307-24.385-9.616 0-18.847 4.231-9.231 4.231-13.462 13.155v-43.541q0-34.461-23.23-59.153t-58.307-24.692q-15.615 0-24.808 4.77-9.192 4.769-17.807 12.462-8.615-23.462-26.731-38.347-18.115-14.885-44.499-14.885-31.539 0-57.307 20.077-25.769 20.077-25.769 60.076v26.156q-5-5.847-11.923-10.078-6.924-4.231-18.847-4.231-35.077 0-58.307 24.385-23.23 24.384-23.23 59.46v400.925l-131.387-68.617q-18.384-9.077-35.768-6.654t-33.922 16.346l-65.845 58.153L363.54 981.383q20.692 20.537 51.269 32.187 30.576 11.66 60.114 11.66Zm0-60q-17 0-37-6.5t-31-17.5L176.771 704.154l20.769-19.231 219.384 113.231V299.539q0-10.923 5.308-17.385 5.308-6.461 16.231-6.461 10.923 0 16.231 6.461 5.307 6.462 5.307 17.385V576h70.769V207.539q0-10.923 5.308-17.385 5.307-6.461 16.231-6.461 10.923 0 16.23 6.461 5.308 6.462 5.308 17.385V576h70.769V243.539q0-10.308 5.307-17.077 5.308-6.769 16.231-6.769 10.924 0 16.231 6.769 5.308 6.769 5.308 17.077V576h70.768V353.539q0-10.923 5.308-17.385 5.308-6.461 16.231-6.461 10.923 0 16.231 6.461 5.308 6.462 5.308 17.385V885.23q0 33-23.5 56.5t-56.5 23.5H474.924Z"/>
</svg>