<?xml version="1.0" encoding="UTF-8" standalone="no"?>
<svg
   xmlns="http://www.w3.org/2000/svg"
   style="shape-rendering:geometricPrecision; text-rendering:geometricPrecision; image-rendering:optimizeQuality; fill-rule:evenodd; clip-rule:evenodd"
   viewBox="0 0 94 91">
 <g  transform="matrix(1.0128294,0,0,1.0005216,-0.12820218,-0.04857957)">
  <path
   style="fill:#005FA0"
   d="m 19.0939,89.0004 h -1.17521 v -7.06305 l -4.34767,7.06305 h -1.1941 v -8.81464 h 1.17639 v 6.95557 l 4.29452,-6.95557 H 19.0939 Z M 55.6103,50.8139 c 3.29885,-4.19885 7.4918,-9.08984 6.89888,-19.1683 L 65.084,30.947563 c 1.04765,-0.298821 2.62797,0.29764 2.26892,1.62757 -0.01654,0.09567 -0.04134,0.188978 -0.07323,0.278742 -0.207876,0.803156 -0.757093,2.96932 -1.40552,5.53705 -0.224411,0.03543 -0.395673,0.229136 -0.395673,0.462996 0,0.151182 0.07205,0.285829 0.184254,0.37205 -1.33348,5.27485 -2.96695,11.7414 -2.99176,11.7462 -0.01772,0.0035 -0.681502,1.79057 -2.40947,1.55434 -0.04488,-0.0071 -0.400397,-0.141733 -0.494886,-0.203151 -1.36418,-0.558666 -4.14807,-1.50592 -4.15633,-1.50946 z M 23.5951,65.5991 22.647848,65.430201 v 0 l -0.0012,-0.0071 -0.0012,-0.0035 -0.0012,-0.0083 -0.0012,-0.0012 c -0.0024,-0.01417 -0.0059,-0.02835 -0.0094,-0.04134 l -0.0012,-0.0024 -0.0024,-0.0071 -0.0071,-0.02008 -0.0024,-0.0059 -0.0012,-0.0035 -0.0035,-0.0094 -0.0035,-0.0083 -0.0012,-0.0012 -0.0094,-0.01772 v -0.0012 l -0.0035,-0.0083 -0.0012,-0.0012 -0.0047,-0.0083 -0.0012,-0.0024 -0.0035,-0.0059 -0.0024,-0.0035 -0.0035,-0.0047 -0.0024,-0.0047 -0.0024,-0.0047 -0.0094,-0.01417 -0.0024,-0.0024 c -0.0094,-0.01417 -0.02008,-0.02716 -0.03189,-0.03898 l -0.0012,-0.0024 -0.0059,-0.0059 -0.0024,-0.0024 -0.0047,-0.0047 -0.0035,-0.0035 -0.0035,-0.0035 -0.0035,-0.0047 -0.0035,-0.0024 -0.0047,-0.0047 -0.0024,-0.0024 -0.01535,-0.01299 v 0 l -0.0083,-0.0059 v 0 l -0.0083,-0.0059 -0.0012,-0.0012 -0.0071,-0.0059 -0.0012,-0.0012 -0.0071,-0.0047 -0.0083,-0.0047 -0.0035,-0.0035 -0.0047,-0.0024 -0.0047,-0.0035 -0.0035,-0.0024 -0.0071,-0.0035 -0.0024,-0.0012 -0.0071,-0.0035 -0.0012,-0.0012 -0.0083,-0.0047 h -0.0012 l -0.0094,-0.0047 v 0 l -0.0094,-0.0047 h -0.0012 l -0.0083,-0.0035 -0.0024,-0.0012 -0.0071,-0.0024 -0.0035,-0.0024 -0.0059,-0.0024 -0.0047,-0.0012 -0.0047,-0.0024 -0.0059,-0.0012 -0.0035,-0.0012 -0.0071,-0.0024 -0.0035,-0.0012 -0.0083,-0.0024 -0.0012,-0.0012 -0.0094,-0.0024 h -0.0012 l -0.0094,-0.0024 h -0.0012 l -0.0094,-0.0024 h -0.0012 l -0.0094,-0.0024 h -0.0024 l -0.0083,-0.0012 -0.0035,-0.0012 h -0.0071 l -0.0047,-0.0012 -0.0047,-0.0012 h -0.0071 l -0.0047,-0.0012 h -0.0071 -0.0035 l -0.0083,-0.0012 h -0.0024 -0.0094 -0.0012 -0.01063 -0.0083 -0.0035 -0.0047 -0.0083 v 0 l -0.0083,0.0012 h -0.0035 -0.0047 l -0.0071,0.0012 v 0 l -0.0083,0.0012 h -0.0035 l -0.0047,0.0012 h -0.0071 v 0.0012 l -0.0083,0.0012 h -0.0024 l -0.0059,0.0012 -0.0059,0.0012 h -0.0012 l -0.0083,0.0024 h -0.0024 l -0.0047,0.0012 -0.0059,0.0012 -0.0024,0.0012 -0.0071,0.0012 -0.0024,0.0012 -0.0047,0.0012 -0.0059,0.0024 h -0.0024 l -0.0071,0.0024 -0.0024,0.0012 -0.0047,0.0012 -0.0059,0.0024 -0.0012,0.0012 -0.0083,0.0024 h -0.0012 l -0.0059,0.0024 -0.0047,0.0024 -0.0024,0.0012 -0.0071,0.0024 -0.0012,0.0012 -0.0059,0.0024 -0.0035,0.0024 -0.0024,0.0012 -0.0071,0.0035 h -0.0012 l -0.0059,0.0035 -0.0035,0.0024 -0.0035,0.0012 -0.0059,0.0035 h -0.0012 l -0.0059,0.0035 -0.0035,0.0024 -0.0024,0.0024 -0.0071,0.0035 v 0 l -0.0059,0.0047 -0.0035,0.0024 -0.0035,0.0012 -0.0059,0.0047 v 0 l -0.0059,0.0047 -0.0035,0.0024 -0.0024,0.0024 -0.0059,0.0047 v 0 l -0.0059,0.0047 -0.0035,0.0012 -0.0024,0.0035 -0.0059,0.0047 v 0 l -0.0059,0.0047 -0.0024,0.0024 -0.0035,0.0024 -0.0047,0.0047 -0.0012,0.0012 -0.0047,0.0047 -0.0024,0.0024 -0.0035,0.0035 -0.0047,0.0047 v 0.0012 l -0.0059,0.0047 -0.0012,0.0024 -0.0035,0.0035 -0.0035,0.0047 -0.0012,0.0012 -0.0047,0.0059 -0.0024,0.0012 -0.0024,0.0047 -0.0047,0.0047 v 0.0012 l -0.0047,0.0059 -0.0012,0.0012 -0.0035,0.0047 -0.0035,0.0047 -0.0012,0.0012 -0.0047,0.0071 v 0.0012 l -0.0035,0.0047 -0.0035,0.0047 -0.0012,0.0024 -0.0035,0.0059 -0.0012,0.0012 -0.0024,0.0059 -0.0035,0.0035 -0.0012,0.0024 -0.683864,-0.121655 -0.0012,-0.0094 v -0.0012 l -0.0012,-0.01063 v 0 l -0.0024,-0.01063 v -0.0012 l -0.0024,-0.0094 v -0.0024 l -0.0024,-0.0083 -0.0012,-0.0024 -0.0012,-0.0083 -0.0012,-0.0035 -0.0024,-0.0059 -0.0012,-0.0047 -0.0024,-0.0059 -0.0012,-0.0047 -0.0012,-0.0047 -0.0024,-0.0059 -0.0012,-0.0047 -0.0035,-0.0059 -0.0012,-0.0035 v -0.0012 l -0.0035,-0.0083 -0.0035,-0.0083 -0.0012,-0.0012 -0.0035,-0.0094 v 0 l -0.0047,-0.0094 v -0.0012 l -0.0047,-0.0083 -0.0012,-0.0012 -0.0047,-0.0083 -0.0012,-0.0024 -0.0059,-0.0094 -0.0035,-0.0059 -0.0024,-0.0035 -0.0035,-0.0047 -0.0024,-0.0047 -0.0059,-0.0094 -0.0024,-0.0035 -0.0047,-0.0047 -0.0024,-0.0035 -0.0047,-0.0059 -0.0059,-0.0071 -0.0012,-0.0012 -0.0012,-0.0024 -0.0059,-0.0071 v 0 l -0.0071,-0.0083 v 0 l -0.0071,-0.0071 -0.0012,-0.0012 -0.0059,-0.0071 -0.0012,-0.0012 -0.0059,-0.0059 -0.0024,-0.0012 -0.0059,-0.0059 -0.0024,-0.0024 -0.0047,-0.0035 -0.0035,-0.0035 -0.0047,-0.0035 -0.0047,-0.0035 -0.0035,-0.0035 -0.0047,-0.0035 -0.0035,-0.0024 -0.0059,-0.0047 -0.0024,-0.0012 -0.0059,-0.0059 -0.0024,-0.0012 -0.0071,-0.0047 -0.0012,-0.0012 -0.0083,-0.0047 v 0 l -0.0094,-0.0059 v 0 l -0.0083,-0.0059 h -0.0012 l -0.0083,-0.0047 -0.0024,-0.0012 -0.0071,-0.0035 -0.0024,-0.0012 -0.0071,-0.0035 -0.0035,-0.0024 -0.0059,-0.0024 -0.0047,-0.0024 -0.0047,-0.0024 -0.0047,-0.0024 -0.0047,-0.0012 -0.0071,-0.0024 -0.0024,-0.0012 -0.0083,-0.0035 h -0.0024 l -0.0083,-0.0035 h -0.0012 l -0.0094,-0.0035 v 0 l -0.01063,-0.0035 v 0 l -0.01063,-0.0024 h -0.0012 l -0.0094,-0.0024 -0.0012,-0.0012 -0.0083,-0.0012 -0.0035,-0.0012 -0.0071,-0.0012 -0.0047,-0.0012 -0.0059,-0.0012 h -0.0059 l -0.0059,-0.0012 -0.0047,-0.0012 h -0.0059 l -0.0059,-0.0012 h -0.0047 l -0.0083,-0.0012 h -0.0024 -0.0094 -0.0012 l -0.01063,-0.0012 h -0.0012 -0.01063 -0.0083 -0.0035 -0.0047 l -0.0083,0.0012 v 0 h -0.0083 -0.0035 l -0.0047,0.0012 h -0.0071 -0.0012 l -0.0083,0.0012 h -0.0024 l -0.0059,0.0012 -0.0047,0.0012 h -0.0035 l -0.0083,0.0012 v 0 l -0.0083,0.0024 h -0.0035 l -0.0035,0.0012 -0.0083,0.0012 v 0 l -0.0083,0.0024 -0.0024,0.0012 h -0.0012 l -0.01063,0.0024 h -0.0012 l -0.0071,0.0024 -0.0024,0.0012 -0.0059,0.0012 -0.0047,0.0024 -0.0024,0.0012 -0.0071,0.0024 h -0.0024 l -0.0059,0.0024 -0.0047,0.0024 -0.0024,0.0012 -0.0071,0.0024 h -0.0012 l -0.0059,0.0035 -0.0035,0.0012 -0.0035,0.0024 -0.0071,0.0024 -0.0012,0.0012 -0.0071,0.0024 -0.0024,0.0024 -0.0035,0.0024 -0.0059,0.0024 -0.0012,0.0012 -0.0071,0.0035 -0.0024,0.0012 -0.0047,0.0024 -0.0047,0.0035 -0.0024,0.0012 -0.0059,0.0035 -0.0012,0.0012 -0.0059,0.0035 -0.0035,0.0024 -0.0024,0.0024 -0.0071,0.0035 v 0 l -0.0059,0.0047 -0.0035,0.0024 -0.0035,0.0024 -0.0047,0.0047 h -0.0012 l -0.0059,0.0047 -0.0024,0.0024 -0.0035,0.0035 -0.0047,0.0035 -0.0012,0.0012 -0.0059,0.0047 -0.0012,0.0012 -0.0047,0.0047 -0.0035,0.0035 -0.0024,0.0012 -0.0047,0.0059 h -0.0012 l -0.0047,0.0059 -0.0024,0.0024 -0.0035,0.0024 -0.0047,0.0059 v 0 l -0.0047,0.0059 -0.0024,0.0024 -0.0035,0.0035 -0.0035,0.0059 h -0.0012 l -0.0047,0.0059 -0.0012,0.0024 -0.0035,0.0047 -0.0035,0.0047 -0.0012,0.0012 -0.0047,0.0059 -0.0012,0.0012 -0.0035,0.0059 -0.0024,0.0035 -0.0024,0.0024 -0.0035,0.0071 h -0.0012 l -0.0035,0.0059 -0.0024,0.0035 -0.0012,0.0035 -0.0035,0.0059 -0.0012,0.0012 -0.0035,0.0071 -0.0012,0.0024 -0.0024,0.0035 c -0.396854,-0.06969 -0.799613,-0.131103 -1.19292,-0.2126 -0.400397,-0.1063 -1.05119,-0.251577 -1.84372,-1.02284 -0.252758,-0.245671 -0.523233,-0.614178 -0.799613,-0.989772 -0.3189,-0.479532 -0.853944,-2.79333 0.858669,-3.59767 0.0059,-0.01417 0.888196,-0.32953 2.53467,-0.943709 0.08622,0.09921 0.2126,0.162993 0.355515,0.162993 0.258664,0 0.468902,-0.210238 0.468902,-0.468902 v -0.0024 c 0.98741,-0.368507 1.75513,-0.655517 1.76458,-0.662604 l 0.295278,0.364964 c 0.02008,0.02244 0.04134,0.04606 0.0626,0.06968 l 0.0012,0.0012 0.0012,0.0012 0.0024,0.0024 c 0.02362,0.02362 0.04843,0.05079 0.07441,0.07559 l 0.0012,0.0024 0.0012,0.0012 0.0024,0.0024 c 0.02717,0.0248 0.05315,0.05197 0.0815,0.07795 v 0 c 0.02835,0.02598 0.05787,0.05197 0.0874,0.07795 l 0.0024,0.0012 v 0 l 0.0024,0.0024 c 0.02953,0.02598 0.06024,0.05079 0.09213,0.07677 v 0 c 0.03425,0.02244 0.06378,0.05079 0.09803,0.07559 l 0.0012,0.0024 v 0 l 0.0024,0.0012 c 0.03425,0.0248 0.06732,0.04961 0.102757,0.07441 0.01654,0.01063 0.03425,0.02126 0.05197,0.03071 l 0.0083,0.0047 0.0059,0.0035 0.0248,0.01417 0.01063,0.0047 0.02244,0.01181 0.01299,0.0071 0.02008,0.0094 0.0035,0.0024 0.02362,0.01181 0.0059,0.0024 0.02126,0.0094 0.01299,0.0059 0.02598,0.01181 0.0094,0.0047 0.02953,0.01181 0.0071,0.0035 0.03307,0.01299 0.0035,0.0012 0.0378,0.01535 v 0 l 0.03779,0.01417 0.0047,0.0024 0.03425,0.01181 0.0083,0.0035 0.03071,0.01181 0.01299,0.0035 0.02717,0.0094 0.01654,0.0059 0.02362,0.0071 0.02126,0.0071 0.02008,0.0059 0.02598,0.0083 0.01535,0.0047 0.03071,0.0094 0.01181,0.0035 0.04252,0.01181 0.04016,0.01063 0.0035,0.0012 0.0437,0.01181 h 0.0012 l 0.04252,0.01063 0.0059,0.0012 0.03898,0.0094 0.01063,0.0035 0.03425,0.0071 0.01535,0.0035 0.02953,0.0071 0.02008,0.0047 0.02598,0.0059 0.0248,0.0047 0.02126,0.0047 0.02953,0.0059 0.01654,0.0035 0.03543,0.0071 0.01181,0.0024 0.04016,0.0071 0.0059,0.0012 0.04606,0.0083 h 0.0012 l 0.04843,0.0083 h 0.0024 l 0.04488,0.0083 h 0.0083 l 0.04016,0.0071 0.01181,0.0012 0.03543,0.0059 0.0437,0.0059 h 0.0047 l 0.02244,0.0035 0.0059,0.0012 0.04842,0.0059 0.02008,0.0024 0.03307,0.0047 0.01535,0.0012 0.03779,0.0047 0.01181,0.0012 0.04252,0.0035 0.05433,0.0059 h 0.0012 l 0.04843,0.0047 h 0.0035 l 0.04488,0.0035 0.0094,0.0012 0.04016,0.0035 0.01299,0.0012 0.03543,0.0024 0.0189,0.0012 0.02953,0.0012 0.02362,0.0012 0.0248,0.0012 0.02835,0.0024 0.02126,0.0012 0.03307,0.0012 0.04725,0.0012 0.0059,0.0012 h 0.0094 l 0.0437,0.0012 h 0.0047 l 0.04843,0.0012 v 0 h 0.04725 0.0047 0.04252 l 0.0094,0.0012 0.0071,-0.0012 h 0.04488 c 2.49097,-0.02244 5.08941,-1.16458 7.55794,-1.60513 0.892921,-0.15945 1.43741,0.607092 1.59096,1.40789 0.30827,1.96891 0.259845,3.99452 -0.0012,5.478 0,0 -8.3481,1.30867 -10.4552,1.58623 -0.07441,-0.161812 -0.237404,-0.275199 -0.427563,-0.275199 -0.205514,0 -0.380318,0.133466 -0.442917,0.316538 z m 0.90237,0.248034 c 1.95356,-0.253939 9.4926,-1.34174 10.4363,-1.4693 -0.08032,0.98741 -0.801975,5.99533 -1.05591,9.35913 -0.05433,0.715754 0.1063,0.959063 -1.02521,0.550398 -3.80791,-1.37245 -9.05204,-4.17287 -13.2344,-8.07526 -0.141733,-0.132285 -0.278742,-0.270475 -0.421657,-0.401578 -0.342523,-0.314176 -0.548036,-0.810243 0.231498,-0.670872 0.17008,0.02953 0.32953,0.05433 0.426382,0.06969 l 0.307089,0.05669 0.0012,0.0083 v 0.0035 l 0.0012,0.0012 0.0012,0.0094 0.0012,0.0083 v 0.0024 l 0.0024,0.0094 v 0.0012 l 0.0024,0.01063 v 0 l 0.0024,0.01063 v 0 l 0.0035,0.01063 v 0.0012 l 0.0024,0.0083 0.0012,0.0024 0.0024,0.0083 0.0012,0.0024 0.0024,0.0083 0.0012,0.0035 0.0024,0.0059 0.0012,0.0047 0.0024,0.0059 0.0047,0.0094 0.0024,0.0059 0.0024,0.0035 0.0024,0.0059 0.0012,0.0035 0.0035,0.0071 0.0024,0.0024 0.0035,0.0071 0.0012,0.0024 0.0047,0.0083 v 0.0012 l 0.0047,0.0083 0.0012,0.0012 0.0047,0.0083 0.0059,0.0094 h 0.0012 l 0.0047,0.0083 0.0012,0.0012 0.0059,0.0071 0.0012,0.0024 0.0047,0.0059 0.0024,0.0024 0.0035,0.0059 0.0035,0.0035 0.0035,0.0047 0.0035,0.0035 0.0035,0.0047 0.0035,0.0035 0.0035,0.0035 0.0047,0.0047 0.0024,0.0035 0.0047,0.0047 0.0024,0.0024 0.0059,0.0047 0.0024,0.0024 0.0059,0.0059 0.0012,0.0012 0.0071,0.0059 0.0012,0.0012 0.0071,0.0059 0.0012,0.0012 0.0083,0.0059 v 0 l 0.0083,0.0071 v 0 l 0.0083,0.0059 0.0012,0.0012 0.0071,0.0047 0.0024,0.0012 0.0071,0.0047 0.0024,0.0024 0.0059,0.0035 0.0035,0.0024 0.0094,0.0047 v 0.0012 l 0.0047,0.0024 0.0059,0.0024 0.0035,0.0024 0.0059,0.0035 0.0035,0.0012 0.0071,0.0035 0.01063,0.0047 0.0012,0.0012 0.0083,0.0035 0.0024,0.0012 0.0083,0.0035 h 0.0012 l 0.0094,0.0035 h 0.0012 l 0.0094,0.0035 h 0.0012 l 0.0094,0.0035 h 0.0012 l 0.0094,0.0035 h 0.0012 l 0.0083,0.0024 0.0035,0.0012 v 0 l 0.01063,0.0024 0.0071,0.0012 0.0047,0.0012 0.0059,0.0012 0.0059,0.0012 0.0047,0.0012 0.0071,0.0012 h 0.0047 l 0.0059,0.0012 h 0.0047 l 0.0071,0.0012 h 0.0035 l 0.0083,0.0012 h 0.0024 l 0.0094,0.0012 h 0.0024 0.01063 v 0 h 0.01181 0.0083 0.0035 0.0047 0.0071 0.0012 l 0.0094,-0.0012 h 0.0012 0.0059 l 0.0071,-0.0012 h 0.0024 l 0.0083,-0.0012 h 0.0012 l 0.0059,-0.0012 h 0.0047 l 0.0035,-0.0012 0.0083,-0.0012 v 0 l 0.0083,-0.0012 0.0035,-0.0012 0.0047,-0.0012 0.0071,-0.0012 0.0083,-0.0024 h 0.0024 l 0.0059,-0.0024 0.0059,-0.0012 0.0024,-0.0012 0.0071,-0.0012 0.0012,-0.0012 0.0071,-0.0024 0.0035,-0.0012 0.0035,-0.0012 0.0071,-0.0024 h 0.0012 l 0.0071,-0.0024 0.0024,-0.0012 0.0047,-0.0024 0.0071,-0.0024 0.0012,-0.0012 0.0071,-0.0024 0.0012,-0.0012 0.0059,-0.0024 0.0047,-0.0024 0.0024,-0.0012 0.0071,-0.0035 h 0.0012 l 0.0059,-0.0035 0.0035,-0.0024 0.0035,-0.0012 0.0071,-0.0035 v -0.0012 l 0.01772,-0.01063 h 0.0012 l 0.0012,-0.0012 0.0071,-0.0047 0.0012,-0.0012 0.0094,-0.0059 0.0024,-0.0012 0.0059,-0.0047 v -0.0012 l 0.0094,-0.0071 0.0035,-0.0024 0.0047,-0.0047 h 0.0012 l 0.0059,-0.0047 0.0024,-0.0024 0.0035,-0.0035 0.0047,-0.0035 0.0071,-0.0059 0.0012,-0.0024 0.0047,-0.0035 0.0035,-0.0035 0.0012,-0.0024 0.0059,-0.0059 v 0 l 0.0059,-0.0047 0.0024,-0.0035 0.0024,-0.0024 0.0047,-0.0059 h 0.0012 l 0.0047,-0.0059 0.0012,-0.0024 0.0071,-0.0094 0.0012,-0.0012 0.0047,-0.0059 0.0012,-0.0012 0.01299,-0.0189 v 0 l 0.0047,-0.0059 0.0012,-0.0035 0.01063,-0.01654 0.0012,-0.0024 0.01063,-0.0189 0.673234,0.124017 v 0.0012 l 0.0012,0.0094 v 0.0012 l 0.0012,0.01063 0.0035,0.02126 0.0012,0.0035 0.0012,0.0071 0.0012,0.0047 0.0012,0.0059 0.0012,0.0047 0.0024,0.0059 0.0012,0.0059 0.0012,0.0047 0.0024,0.0059 0.0012,0.0047 0.0024,0.0059 0.0012,0.0035 0.0024,0.0071 0.0012,0.0035 0.0024,0.0083 0.0012,0.0024 0.0083,0.01772 v 0.0012 l 0.0047,0.0094 v 0 l 0.0047,0.0094 v 0.0012 l 0.0047,0.0083 0.0012,0.0012 0.0047,0.0083 v 0.0024 l 0.0047,0.0071 0.0012,0.0024 0.0047,0.0071 0.0012,0.0024 0.0047,0.0059 0.0024,0.0035 0.0035,0.0059 0.0024,0.0035 0.0035,0.0047 0.0035,0.0035 0.0035,0.0047 0.0024,0.0047 0.0035,0.0035 0.0035,0.0047 0.0035,0.0035 0.0047,0.0059 0.0012,0.0024 0.0059,0.0059 0.0012,0.0012 0.0059,0.0071 0.0024,0.0012 0.0059,0.0071 h 0.0012 l 0.0071,0.0071 v 0.0012 l 0.0083,0.0071 v 0 l 0.0071,0.0071 h 0.0012 l 0.0071,0.0059 0.0012,0.0012 0.0071,0.0059 0.0024,0.0012 0.0059,0.0047 0.0024,0.0024 0.0059,0.0047 0.0035,0.0024 0.0059,0.0035 0.0035,0.0024 0.0047,0.0035 0.0047,0.0024 0.0047,0.0035 0.0047,0.0024 0.0035,0.0035 0.0059,0.0024 0.0035,0.0024 0.0071,0.0035 0.0024,0.0012 0.0071,0.0035 0.0024,0.0024 0.0083,0.0035 0.0012,0.0012 0.0083,0.0035 h 0.0012 l 0.0094,0.0047 h 0.0012 l 0.0094,0.0035 v 0 l 0.01063,0.0047 v 0 l 0.0094,0.0035 h 0.0012 l 0.0094,0.0035 h 0.0024 l 0.0083,0.0024 0.0024,0.0012 0.0083,0.0024 h 0.0035 l 0.0059,0.0024 0.0047,0.0012 0.0071,0.0012 0.0047,0.0012 0.0059,0.0012 0.0059,0.0012 h 0.0047 l 0.0059,0.0012 0.01181,0.0024 h 0.0035 l 0.0083,0.0012 h 0.0035 l 0.0083,0.0012 h 0.0024 0.0094 0.0024 l 0.01063,0.0012 v 0 h 0.01181 0.0083 0.0035 0.0047 l 0.0071,-0.0012 h 0.0012 0.0094 0.0012 l 0.0071,-0.0012 h 0.0047 0.0035 l 0.0083,-0.0012 v 0 l 0.0083,-0.0012 0.0035,-0.0012 h 0.0047 l 0.0071,-0.0012 h 0.0012 l 0.0083,-0.0024 h 0.0024 l 0.0047,-0.0012 0.0059,-0.0012 0.0024,-0.0012 0.0083,-0.0012 0.0012,-0.0012 0.0071,-0.0012 0.0035,-0.0012 0.0035,-0.0012 0.0083,-0.0024 v 0 l 0.0083,-0.0024 0.0024,-0.0012 0.0047,-0.0012 0.0059,-0.0024 0.0024,-0.0012 0.0071,-0.0024 0.0012,-0.0012 0.0059,-0.0024 0.0047,-0.0012 0.0035,-0.0012 0.0071,-0.0035 v 0 l 0.0071,-0.0035 0.0035,-0.0012 0.0035,-0.0024 0.0071,-0.0035 v 0 l 0.0071,-0.0035 0.0024,-0.0012 0.0047,-0.0024 0.0047,-0.0035 0.0024,-0.0012 0.0071,-0.0035 0.0012,-0.0012 0.0059,-0.0035 0.0035,-0.0024 0.0024,-0.0012 0.0071,-0.0047 v 0 l 0.0071,-0.0047 0.0024,-0.0012 0.0035,-0.0035 0.0047,-0.0035 0.0024,-0.0012 0.0059,-0.0047 0.0012,-0.0012 0.0047,-0.0035 0.0035,-0.0035 0.0024,-0.0012 0.0071,-0.0059 v 0 l 0.0059,-0.0047 0.0024,-0.0024 0.0035,-0.0035 0.0047,-0.0047 v 0 l 0.0059,-0.0059 0.0012,-0.0012 0.0047,-0.0047 0.0035,-0.0035 0.0024,-0.0024 0.0047,-0.0059 h 0.0012 l 0.0047,-0.0059 0.0024,-0.0024 0.0024,-0.0035 0.0047,-0.0059 h 0.0012 l 0.0047,-0.0059 0.0012,-0.0024 0.0035,-0.0035 0.0035,-0.0059 0.0012,-0.0012 0.0047,-0.0059 0.0012,-0.0012 0.0035,-0.0059 0.0024,-0.0035 0.0024,-0.0024 0.0035,-0.0071 v 0 l 0.0047,-0.0071 0.0012,-0.0024 0.0024,-0.0047 0.0035,-0.0047 0.0012,-0.0024 0.0035,-0.0059 0.0012,-0.0024 0.0024,-0.0047 0.0024,-0.0047 0.0012,-0.0024 0.989772,0.183072 c 0.0626,0.186616 0.238585,0.320081 0.445279,0.320081 0.226774,0 0.41457,-0.15945 0.459453,-0.373231 z m 31.7105,-53.7158 c -1.07954,-1.60867 -5.29729,-8.03393 -5.24414,-8.07999 -0.846857,-1.13623 0.0047,-3.10514 0.472445,-3.52916 0.39331,0.0555123 0.563391,0.0885834 1.04883,0.177167 1.14332,0.209057 2.43663,0.48898 3.38507,0.740557 6.59179,1.75395 12.6107,5.44138 17.1356,10.1139 0.183072,0.188978 0.199608,0.205514 0.377956,0.396854 0.289373,0.310633 0.545674,1.25552 0.190159,1.89096 -0.675596,1.2071 -1.7882,2.84412 -2.04805,3.23979 -0.03543,-0.0094 -0.07205,-0.01417 -0.111025,-0.01417 -0.258664,0 -0.468902,0.210238 -0.468902,0.468902 0,0.165356 0.08622,0.311814 0.214962,0.394491 -0.516146,2.05632 -2.40947,9.58473 -2.40947,9.58473 -0.101576,0.424019 -1.27206,1.12324 -2.08584,-0.1063 -0.402759,-0.568115 -0.611816,-0.916543 -1.00749,-1.49293 0.06142,-0.07914 0.09685,-0.178348 0.09685,-0.285829 0,-0.258664 -0.209057,-0.468902 -0.468902,-0.468902 -0.04488,0 -0.08976,0.0071 -0.131103,0.0189 -0.312995,-0.455909 -0.654336,-0.951976 -1.01458,-1.47521 0.06614,-0.0815 0.105119,-0.184254 0.105119,-0.29764 0,-0.258664 -0.209057,-0.468902 -0.468902,-0.468902 -0.05197,0 -0.101576,0.0094 -0.147639,0.0248 -2.71301,-3.93547 -6.19375,-8.95401 -6.99927,-10.115 0.04488,-0.07205 0.07087,-0.157088 0.07087,-0.248034 0,-0.258664 -0.210238,-0.468902 -0.468902,-0.468902 h -0.02362 z m 0.140552,0.922449 c 0.812605,1.17048 4.31342,6.20556 7.02289,10.1186 -0.04016,0.06969 -0.06378,0.150001 -0.06378,0.235041 0,0.259845 0.210238,0.470083 0.468902,0.470083 0.02717,0 0.05197,-0.0024 0.07795,-0.0071 0.369688,0.535044 0.719297,1.04174 1.03938,1.50356 -0.04842,0.07441 -0.07677,0.161812 -0.07677,0.256301 0,0.259845 0.210238,0.468902 0.468902,0.468902 0.03425,0 0.0685,-0.0035 0.100395,-0.01063 0.809062,1.17521 1.32757,1.93584 1.3193,1.94175 0.88111,1.34292 -1.07127,2.43427 -1.34883,2.4886 0,0 -2.86656,0.770085 -2.86656,0.770085 -0.438193,-9.71465 -6.77604,-19.1777 -16.9123,-20.8951 0.08268,-0.150001 0.367326,-1.0358397 0.695675,-2.0917497 0.217325,-0.040158 0.38268,-0.231498 0.38268,-0.460634 0,-0.129922 -0.05315,-0.248034 -0.13819,-0.333074 0.383861,-1.24844 0.772447,-2.54057 0.938984,-3.06026 0.235041,-0.653155 0.857487,-1.24725 1.58151,-1.17521 1.38426,0.13819 5.48981,7.2272297 6.81147,9.0555897 -0.05551,0.07677 -0.0874,0.17008 -0.0874,0.271656 0,0.258664 0.210238,0.468902 0.468902,0.468902 0.04016,0 0.07913,-0.0047 0.11693,-0.01535 z m 15.4194,4.17405 c 0.192521,-0.311814 1.15867,-1.8697 1.94057,-2.91617 0.395673,-0.529138 1.24844,-0.596462 1.58623,-0.168899 0.214962,0.274018 0.314176,0.388586 0.530319,0.66851 1.33466,1.73033 2.57128,3.62838 3.6579,5.63627 2.49805,4.61697 4.01933,10.0501 4.36421,15.5706 0.02362,0.376775 0.03425,0.754731 0.05433,1.13269 0.05079,1.00631 -1.18466,0.651974 -2.02679,0.152363 l -0.0059,0.0083 c -0.0012,0.0024 -1.05237,-0.571658 -2.51104,-1.37009 -0.0024,-0.256301 -0.210238,-0.464177 -0.468902,-0.464177 -0.09095,0 -0.175986,0.02598 -0.248034,0.07087 l -1.24725,-0.682683 c -0.0024,-0.256301 -0.211419,-0.462996 -0.468902,-0.462996 -0.09095,0 -0.175986,0.02598 -0.248034,0.07087 -2.65986,-1.45867 -5.45083,-2.98821 -5.96934,-3.27286 -1.5756,-0.823235 -1.96065,-2.60317 -1.54608,-4.07129 0.193702,-0.78544 1.7575,-7.16699 2.24293,-9.12409 h 0.01063 c 0.258664,0 0.468902,-0.209057 0.468902,-0.468902 0,-0.118111 -0.0437,-0.226774 -0.115749,-0.30827 z m -59.0603,40.3196 c -0.144096,-0.236222 -0.0685,-0.112206 -0.219687,-0.375594 -2.00317,-3.47247 -4.60398,-9.25874 -4.94177,-17.3647 -0.011811,-0.268112 -0.00827,-0.08622 -0.014173,-0.360239 -0.03189,-1.49765 1.77994,-2.74372 2.77679,-2.52876 0.06614,0.01417 0.137009,0.0378 0.216144,0.06024 0.02126,0.238585 0.222049,0.426382 0.466539,0.426382 0.155907,0 0.292916,-0.07559 0.379137,-0.192521 l 3.95554,1.09843 c 0.04134,0.216144 0.231498,0.380318 0.460634,0.380318 0.13819,0 0.263388,-0.06024 0.348428,-0.155907 l 1.91576,0.531501 c -0.04725,0.119292 -0.982685,1.30159 -1.44568,2.37876 l -0.01535,0.03779 -0.02244,0.05315 -0.01417,0.03543 -0.0189,0.05079 -0.01417,0.03543 -0.01772,0.05079 -0.01299,0.03543 -0.02008,0.05669 -0.0071,0.02244 c -0.0083,0.0248 -0.01653,0.05197 -0.0248,0.07795 v 0.0047 l -0.0035,0.0094 c -0.0059,0.02244 -0.01299,0.04488 -0.0189,0.06732 l -0.0047,0.02126 -0.01299,0.05433 -0.0059,0.0248 -0.01063,0.04724 -0.0047,0.02835 -0.0071,0.04134 -0.0047,0.03071 -0.0047,0.03662 -0.0035,0.03071 -0.0024,0.03898 -0.0012,0.02598 c -0.0012,0.02126 -0.0024,0.04134 -0.0012,0.06142 l 0.0012,0.04488 v 0 l 0.0012,0.04488 v 0.0012 l 0.0024,0.0437 0.0012,0.0012 0.0035,0.04252 v 0.0012 l 0.0035,0.0437 0.0012,0.0012 0.0047,0.04252 v 0.0012 l 0.0059,0.04134 v 0.0024 l 0.0071,0.04016 v 0.0035 l 0.0071,0.04016 0.0012,0.0024 0.0083,0.03898 v 0.0035 l 0.0094,0.03898 0.0012,0.0035 0.0094,0.0378 v 0.0035 l 0.01063,0.0378 0.0012,0.0035 0.0047,0.01535 c 0.0059,0.02244 0.01417,0.04488 0.02126,0.06614 v 0 l 0.01181,0.03543 0.0024,0.0047 0.01299,0.03425 0.01299,0.03189 0.0024,0.0071 0.0024,0.0047 0.01417,0.03307 0.0024,0.0059 0.01535,0.03189 0.0024,0.0059 0.01535,0.03071 0.0035,0.0059 0.01654,0.03071 v 0.0012 l 0.01653,0.02953 0.0047,0.0071 0.01417,0.02362 0.0059,0.01063 0.0047,0.0071 0.01772,0.02717 c 0.02835,0.04488 0.06024,0.0874 0.09331,0.12756 l 0.0071,0.0094 0.02362,0.02598 0.0024,0.0035 0.02717,0.02953 v 0.0012 c 0.01772,0.0189 0.03543,0.03661 0.05315,0.05433 l 0.0094,0.0094 0.0189,0.01654 0.01063,0.01063 0.02953,0.0248 0.0012,0.0012 0.02717,0.02244 0.0094,0.0083 0.02835,0.02244 0.0024,0.0012 0.03071,0.02244 0.0059,0.0047 0.03307,0.02362 0.0024,0.0012 0.03543,0.02362 h 0.0012 l 0.03425,0.02126 0.0059,0.0035 c 0.0248,0.01535 0.05079,0.02953 0.07677,0.0437 l 0.0012,0.0012 c 0.206695,0.108662 0.294097,0.135828 0.516146,0.183072 v 0 l 0.05906,0.01181 0.0437,0.0083 0.0094,0.0012 0.04961,0.0083 0.0047,0.0012 0.04724,0.0059 0.01299,0.0024 0.05079,0.0059 h 0.0035 c 0.07677,0.0083 0.157088,0.01417 0.239766,0.01772 h 0.0083 l 0.05551,0.0012 h 0.0035 c 0,0 1.03938,-0.08622 1.4634,0.856306 v 0 0.0012 l 0.0012,0.0024 c 0.01535,0.04252 0.03662,0.08976 0.04725,0.132285 l 0.0012,0.0024 c 0.09095,0.245671 0.171261,0.433468 0.248034,0.71103 l 0.0059,0.02953 c 0.0437,0.249215 0.07795,0.49961 0.09685,0.752369 l 0.0012,0.01654 0.0012,0.01535 0.0012,0.02244 v 0.0083 l 0.0024,0.03071 v 0.0012 l 0.0024,0.03071 v 0.0071 l 0.0012,0.02362 0.0012,0.01417 0.0012,0.01772 0.0012,0.02008 v 0.0094 l 0.0012,0.02717 v 0.0035 l 0.0012,0.03071 v 0.0035 l 0.0012,0.02599 v 0.01063 l 0.0012,0.0189 v 0.01772 l 0.0012,0.01181 v 0.02362 0.0059 0.02835 0.0012 0.02716 l 0.0012,0.0083 v 0.02008 0.01417 0.01299 0.02126 0.0059 l -0.0012,0.02717 c -0.0071,0.536225 -0.174805,0.651974 -0.114568,0.97678 v 0.0024 l 0.0012,0.0024 v 0.0024 0.0024 0.0024 h 0.0012 v 0.0012 0.0024 l 0.0012,0.0024 v 0.0024 0.0024 0.0012 l 0.0012,0.0012 v 0.0024 0.0024 l 0.0012,0.0024 0.0012,0.0012 v 0.0012 0.0024 l 0.0012,0.0012 v 0.0024 l 0.0012,0.0024 v 0.0024 0.0012 l 0.0012,0.0012 v 0.0024 l 0.0012,0.0024 v 0.0024 l 0.0012,0.0024 v 0.0012 0 l 0.0012,0.0035 v 0.0024 l 0.0012,0.0012 0.0012,0.0024 v 0.0024 0 l 0.0012,0.0024 0.0012,0.0024 v 0.0024 l 0.0012,0.0024 0.0012,0.0024 v 0 0.0024 l 0.0012,0.0035 0.0012,0.0012 v 0.0024 l 0.0012,0.0024 v 0 l 0.0012,0.0024 0.0012,0.0024 v 0.0024 l 0.0012,0.0024 0.0012,0.0024 v 0.0012 l 0.0012,0.0012 0.0012,0.0024 v 0.0024 l 0.0012,0.0024 0.0012,0.0035 v 0 l 0.0012,0.0024 0.0012,0.0024 v 0.0024 l 0.0012,0.0024 0.0012,0.0024 0.0012,0.0012 v 0.0012 l 0.0012,0.0024 0.0012,0.0024 0.0012,0.0024 0.0012,0.0024 v 0.0024 h 0.0012 l 0.0012,0.0024 0.0012,0.0024 c 0.0815,0.227955 0.314176,0.538587 0.703943,0.855125 0.04252,0.02126 0.14882,0.08386 0.157088,0.134647 0.0083,0.06378 -0.01417,0.109843 -0.03898,0.166537 l -0.0047,0.0083 -0.0071,0.01417 -0.04725,0.08031 c -0.316538,0.537406 -0.388586,0.822054 0.164175,1.53072 0.419295,0.409846 0.758274,0.609454 0.922449,0.975599 v 0.0024 h 0.0012 v 0.0024 l 0.0012,0.0024 0.0012,0.0024 0.0012,0.0024 v 0.0024 l 0.0012,0.0024 0.0012,0.0024 0.0012,0.0024 v 0.0024 0 l 0.0012,0.0024 0.0012,0.0035 v 0.0024 l 0.0012,0.0024 0.0012,0.0012 0.0012,0.0035 v 0.0024 l 0.0012,0.0024 v 0.0024 0 l 0.0012,0.0024 0.0012,0.0024 v 0.0024 l 0.0012,0.0024 0.0012,0.0024 0.0012,0.0035 v 0.0024 l 0.0012,0.0024 0.0012,0.0024 h -0.0012 l 0.0012,0.0024 0.0012,0.0024 v 0.0024 l 0.0012,0.0024 0.0012,0.0035 v 0.0012 l 0.0012,0.0035 0.0012,0.0024 v 0.0024 0 l 0.0012,0.0024 v 0.0024 l 0.0012,0.0035 0.0012,0.0024 v 0.0024 l 0.0012,0.0024 c 0.07205,0.27638 0.08976,0.582288 0.09213,0.868118 -0.0012,0.15945 -0.0071,0.3189 -0.01653,0.47835 -0.07323,1.0819 -0.524414,2.34687 0.108662,3.34255 -0.02362,0.02244 -0.772447,0.300003 -1.73978,0.650793 -0.08386,-0.08386 -0.200789,-0.135828 -0.32953,-0.135828 -0.24449,0 -0.444098,0.185435 -0.466539,0.424019 -0.733471,0.264569 -2.00435,0.851582 -3.13349,1.05119 -0.929535,0.165356 -3.40515,-0.490162 -3.81854,-1.38072 z m -5.00201,-23.2431 c 0.030709,-0.40394 0.049607,-0.540949 0.09567,-0.936622 0.649612,-5.4969 2.68231,-10.1965 4.04649,-12.8068 1.1445,-2.18742 1.4693,-0.08032 1.43505,0.03425 l -0.433468,1.32403 c -0.240947,0.02008 -0.429925,0.220868 -0.429925,0.46772 0,0.140552 0.0626,0.268112 0.160631,0.353153 l -0.317719,0.974418 c -0.251577,0.0094 -0.452366,0.216144 -0.452366,0.468902 0,0.14882 0.06969,0.282286 0.178348,0.368507 -0.635438,1.94411 -1.37718,4.21893 -1.99608,6.12407 -0.248034,0.01181 -0.445279,0.217325 -0.445279,0.468902 0,0.147639 0.068504,0.278742 0.174805,0.364964 -0.520871,1.60867 -0.79607,2.45081 -0.890559,2.76735 -0.175986,0.667328 -1.18584,0.703943 -1.1256,0.02717 z m 1.51891,-0.113387 0.833865,-2.57955 c 0.238585,-0.02126 0.426382,-0.222049 0.426382,-0.466539 0,-0.141733 -0.0626,-0.268112 -0.161812,-0.354334 l 1.98427,-6.13942 c 0.245671,-0.01417 0.440555,-0.218506 0.440555,-0.46772 0,-0.146458 -0.06614,-0.27638 -0.171261,-0.362601 l 0.311814,-0.964969 c 0.258664,0 0.468902,-0.210238 0.468902,-0.468902 0,-0.157088 -0.07677,-0.295278 -0.194884,-0.380318 l 0.328349,-1.01339 c 0.164175,-0.501973 0.561028,-1.29568 1.15158,-1.92876 0.648431,-0.695675 1.65356,-1.19529 3.38743,-1.69017 0.05906,-0.01654 2.02797,-0.471264 2.5016,-0.582288 0.08504,0.09331 0.207876,0.151182 0.344885,0.151182 0.2126,0 0.392129,-0.141733 0.450004,-0.335436 0.922449,-0.214962 5.87367,-1.30867 4.99847,-0.630714 -0.198427,0.153545 -0.100395,0.07913 -0.285829,0.237404 -3.23861,2.76616 -4.63705,6.33076 -5.55595,10.5851 l -0.0083,0.0378 -0.03425,0.165356 -0.0012,0.0071 c -0.24449,1.2508 -0.303546,2.01025 -0.748825,3.49491 l -0.0189,0.08032 v 0 c -0.30827,1.23899 -0.485437,1.97246 0.351971,2.9705 l 0.03307,0.03898 0.0024,0.0035 c 0.12756,0.145277 0.272837,0.270475 0.402759,0.413389 0.240947,0.275199 0.328349,0.555123 0.252758,0.915362 l -0.0012,0.0035 -0.0071,0.02953 -0.0012,0.0035 -0.0083,0.03307 v 0.0012 l -0.01063,0.03189 -0.0071,0.02244 -0.0035,0.01063 -0.0024,0.0094 -0.0083,0.02362 -0.0024,0.0047 c -0.118111,0.316538 -0.459453,0.775991 -0.655517,1.12678 l -1.77049,2.50514 c -0.196065,-0.07913 -0.972055,-0.304727 -1.98781,-0.587013 -0.03661,-0.22323 -0.229136,-0.392129 -0.461815,-0.392129 -0.142915,0 -0.271656,0.06378 -0.357877,0.165356 -1.29332,-0.355515 -2.79451,-0.758274 -3.9768,-1.07127 -0.04134,-0.216144 -0.231498,-0.380318 -0.460634,-0.380318 -0.142915,0 -0.270475,0.06378 -0.356696,0.165356 -0.7535496,-0.197246 -0.7003996,-0.19134 -0.7027616,-0.184254 -0.746463,-0.282286 -0.770085,-2.07758 -0.707486,-2.25711 z m 5.66461,-18.5317 c 0.192521,-0.294097 0.218506,-0.279924 0.434649,-0.563391 3.01184,-3.94964 6.85636,-7.23786 10.4292,-9.40047 0.349609,-0.211419 0.277561,-0.178348 0.621265,-0.367326 0.550398,-0.302365 1.02639,0.667328 1.11143,1.35355 -0.112206,0.086221 -0.183072,0.219687 -0.183072,0.37205 0,0.19134 0.114568,0.356696 0.279924,0.428744 l 0.650793,5.31619 c -0.09449,0.08622 -0.153545,0.209057 -0.153545,0.346066 0,0.178348 0.09921,0.333074 0.245671,0.412208 0.0035,0.427563 -0.367326,0.92363 -1.32639,1.29332 -1.84372,0.712211 -4.99138,1.18111 -5.74729,1.34292 -0.08622,-0.113387 -0.222049,-0.187797 -0.375594,-0.187797 -0.230317,0 -0.422838,0.166537 -0.461815,0.386224 -1.54135,0.363783 -2.13545,0.492524 -3.22562,0.757093 -0.947252,0.230317 -2.43782,0.137009 -2.29963,-1.48938 z m 32.2302,-11.4698 c -0.20197,0.523233 -0.635438,1.8886 -1.04292,3.19609 -0.205514,0.049607 -0.357877,0.235041 -0.357877,0.455909 0,0.119292 0.04488,0.229136 0.119292,0.311814 -0.366145,1.17757 -0.662604,2.14254 -0.674415,2.14136 -6.3473,-0.649612 -13.6348,2.38703 -15.7879,3.44885 0,0 -0.356696,0.09331 -0.529138,-0.236222 0.105119,-0.08622 0.171261,-0.216144 0.171261,-0.362601 0,-0.192521 -0.114568,-0.356696 -0.281105,-0.429925 -0.185435,-1.34292 -0.484256,-3.50672 -0.722841,-5.26067 0.135828,-0.081497 0.226774,-0.230317 0.226774,-0.400397 0,-0.216144 -0.145277,-0.396854 -0.342523,-0.452366 -0.08622,-0.634257 -0.196065,-2.03269 0.294097,-2.27128 0.275199,-0.134647 0.549217,-0.27638 0.830322,-0.411027 3.78428,-1.82718 8.19219,-3.28113 13.2214,-3.71696 1.65001,-0.144096 2.83349,-0.203151 4.61579,-0.105119 0.824416,0.279924 0.973237,2.49097 0.259845,4.09255 z m 34.4613,33.5046 c 1.89214,1.12678 2.3327,1.76222 2.23939,3.1016 -0.03307,0.465358 -0.06969,0.931898 -0.11693,1.39726 -0.300003,2.95042 -0.949614,5.90084 -1.92403,8.68826 -0.705124,2.34569 -2.03388,2.57601 -2.18978,2.59845 -0.02008,0.0024 -0.863393,-0.0378 -2.12718,-0.09921 -0.06969,-0.172442 -0.238585,-0.294097 -0.43583,-0.294097 -0.18071,0 -0.337798,0.102757 -0.415752,0.252758 -1.29214,-0.06378 -2.86065,-0.141733 -4.40791,-0.219687 -0.07677,-0.151182 -0.235041,-0.256301 -0.418114,-0.256301 -0.165356,0 -0.310633,0.08622 -0.394491,0.216144 -3.06381,-0.153545 -5.82406,-0.295278 -5.86895,-0.301184 -2.81931,-0.359058 -2.34569,-1.89805 -2.33388,-2.02325 0.0012,-0.0059 -0.01417,0.05551 0.04606,-0.197246 0.01417,-0.09331 0.03661,-0.184254 0.06496,-0.272837 0.427563,-1.76931 1.68427,-6.75006 2.75317,-10.9737 0.209057,-0.04724 0.364964,-0.23386 0.364964,-0.45709 0,-0.140552 -0.06142,-0.268112 -0.160631,-0.353153 0.826779,-3.26105 1.38781,-5.46855 1.38781,-5.46855 0.204332,-0.670872 1.57442,-2.27364 3.64255,-1.06891 l 5.17091,2.87955 c 0,0.0083 -0.0012,0.0189 -0.0012,0.02835 0,0.258664 0.210238,0.468902 0.468902,0.468902 0.101576,0 0.194884,-0.03189 0.271656,-0.08622 l 1.22481,0.681502 -0.0012,0.01063 c 0,0.258664 0.210238,0.468902 0.468902,0.468902 0.09449,0 0.183072,-0.02835 0.256301,-0.07559 l 2.43545,1.35474 z m -2.27128,16.0938 c 0.688588,0.05315 0.929535,0.929535 0.673234,1.39962 -0.04488,0.09567 -0.04725,0.09921 -0.09213,0.194884 -0.03661,0.07677 -0.07441,0.153545 -0.111025,0.230317 -2.50514,5.16028 -5.82761,9.27291 -10.3336,12.6556 -0.05315,0.04016 -0.1063,0.08032 -0.160631,0.119292 -0.103938,0.07559 -0.535044,0.253939 -0.664966,-0.140552 0.07323,-0.08386 0.118111,-0.192521 0.118111,-0.311814 0,-0.23386 -0.17008,-0.426382 -0.39331,-0.462996 -0.786621,-2.21104 -2.41065,-6.78077 -3.32365,-9.44654 0.0874,-0.08622 0.141733,-0.204332 0.141733,-0.336617 0,-0.240947 -0.18071,-0.438193 -0.41457,-0.465358 -0.229136,-0.683864 -0.374413,-1.13859 -0.387405,-1.23662 -0.472445,-1.52009 0.137009,-2.8016 2.00789,-2.80868 0.151182,0.0083 0.322444,0.01654 0.511422,0.02598 1.07127,0.05197 2.7012,0.12756 4.44216,0.207876 0.0378,0.220868 0.230317,0.388586 0.461815,0.388586 0.217325,0 0.399216,-0.146459 0.453547,-0.347248 1.51419,0.06969 3.05199,0.140552 4.32996,0.200789 0.04606,0.211419 0.23386,0.369688 0.458272,0.369688 0.210238,0 0.387405,-0.13819 0.447642,-0.327168 0.823235,0.03898 1.47048,0.07087 1.83545,0.09095 z m -15.4962,2.41892 c 0.165356,0.399216 0.328349,0.809062 0.48898,1.22599 -0.04843,0.07323 -0.07677,0.161812 -0.07677,0.256301 0,0.216144 0.145277,0.396854 0.343704,0.452366 0.316538,0.852763 0.620084,1.71497 0.911819,2.54293 0.879929,2.43309 1.85317,5.30319 2.41183,6.97092 -0.05787,0.07795 -0.09213,0.174805 -0.09213,0.279924 0,0.2126 0.141733,0.39331 0.336617,0.450004 0.363783,1.09253 -1.32875,5.328 2.09411,7.25321 1.13151,0.568115 2.75435,1.19765 4.57917,1.45749 2.79097,0.396854 6.02603,0.185435 8.16621,0.557485 3.52444,0.611816 3.02601,3.64609 0.772447,4.01578 -2.09175,0.194884 -3.51263,0.01654 -3.652,1.54489 -0.02717,0.29764 -0.102757,0.387405 -0.179529,0.346066 -0.184254,-0.100395 -0.238585,-1.02284 0.07795,-1.48702 0.811424,-1.1941 3.45593,-0.46772 4.36067,-1.71261 0.434649,-0.598824 -0.05315,-1.5319 -1.68781,-1.79647 -4.50004,-0.731108 -7.76581,0.771266 -13.4021,-1.44804 -1.11733,-0.439374 -1.70907,-0.78544 -2.1071,-1.06536 -0.269294,-0.185435 -0.529138,-0.427563 -0.71103,-0.584651 -0.160631,-0.139371 -0.562209,-0.569296 -0.659061,-0.63662 -0.266931,-0.183072 -1.95947,-0.455909 -2.36931,-0.507878 -1.66655,-0.214962 -3.07562,-0.172442 -4.70083,0.109843 0.05197,0.26575 -0.01417,0.496067 -0.203151,0.637801 -0.426382,0.320081 -1.58623,0.582288 -2.14726,0.707486 -1.16103,0.258664 -1.67009,0.948433 -2.08348,1.09607 -0.315357,0.113387 -0.35079,0.0874 -0.688588,0.144096 -0.04961,-0.188978 0.05197,-0.359058 0.239766,-0.533863 -0.646068,-0.15945 -1.7386,0.09921 -2.47561,0.01772 -0.04134,-0.253939 0.291735,-0.15945 0.23386,-0.301184 -0.292916,0.07205 -0.644887,0.17008 -0.826779,0.01417 -0.07441,-0.0626 -0.146458,-0.12756 -0.22323,-0.19134 0.0378,-0.04016 0.23386,-0.198427 0.23386,-0.199608 0.114568,-0.196065 -0.06378,0.0012 -0.05906,-0.178348 0.804337,-0.418114 0.960244,-0.08622 1.79411,-0.07323 0.983867,-0.0071 2.6575,-0.511422 3.46775,-1.33348 -0.198427,-1.41025 -2.30199,-3.38034 -2.60081,-4.07602 -1.60513,-2.32561 0.686226,-3.01184 -0.439374,-4.6961 -0.601186,-0.703943 -1.18938,-1.07954 -1.96773,-1.59804 -0.258664,-0.173624 -1.03111,-0.669691 -1.39962,-0.90237 -5.00083,-3.12759 -1.84726,-1.4882 -5.2028,-0.729927 -0.575202,0.160631 -0.509059,0.603548 -0.956701,0.992134 l -0.285829,-0.114568 c -0.19134,0.376775 -0.128741,0.988591 -0.709848,0.760636 -0.08858,0.184254 -0.04843,0.18071 -0.219687,0.274018 -0.302365,-0.213781 -0.188978,-0.487799 -0.113387,-0.807881 0.07559,-0.316538 0.07441,-0.649612 0.20197,-0.948433 0.206695,-0.486618 0.813786,-0.577564 1.13977,-0.884653 0.492524,-0.465358 1.44804,-1.67009 1.49765,-2.32679 0.279924,-1.1445 0.240947,-1.50828 0.02126,-2.44845 l -0.174805,-0.3189 c -0.259845,-0.571658 -0.857487,-1.60395 -0.989772,-2.17325 -0.612997,-1.53545 -0.167718,-1.51182 -1.11497,-2.20159 -0.823235,-0.419295 -1.65592,-0.936622 -2.26301,-1.67127 -0.271656,-0.328349 -0.408665,-0.355515 -0.650793,-0.643706 -0.24449,-0.289373 -0.616541,-0.549217 -0.884653,-0.824416 -0.638982,-0.654336 -0.928354,-1.38781 -1.02284,-2.2949 -0.05788,-0.542131 -0.872842,-1.41615 1.45749,-1.38781 0.667328,0.0083 0.832684,0.0874 1.53545,-0.03425 l 3.18664,-0.460634 c 0.980323,0.01417 2.4201,0.422838 3.20554,0.826779 0.744101,-0.755912 1.31812,-1.45041 2.09529,-1.62993 0.846857,-0.197246 1.87679,0.172442 2.13663,0.596462 0.173624,0.282286 0.477169,0.882291 0.288191,1.5319 -0.190159,0.655517 -0.555123,0.969693 -0.740557,1.08899 -0.271656,0.181891 -0.625989,0.41457 -1.213,0.374413 0.197246,0.566934 1.1941,1.55316 1.58978,2.0138 0.421657,0.479532 0.625989,0.775991 1.15985,1.14922 1.02284,0.644887 2.59608,0.412208 3.46302,0.737014 0,0 4.41264,1.56615 4.44453,1.57915 1.43269,0.557485 2.88546,2.08348 3.35908,3.21853 z m 15.0946,28.3254 c 0,0.553942 -0.0874,1.04292 -0.263388,1.47167 -0.174805,0.428744 -0.419295,0.787802 -0.731108,1.07481 -0.335436,0.312995 -0.744101,0.559847 -1.22481,0.744101 -0.483075,0.183072 -0.994497,0.281105 -1.54017,0.292916 v 0.981504 h -1.17521 v -0.981504 c -0.530319,-0.01181 -1.03702,-0.107481 -1.52245,-0.284648 -0.484256,-0.178348 -0.898826,-0.428744 -1.24253,-0.752369 -0.310633,-0.290554 -0.556304,-0.650793 -0.731108,-1.07717 -0.175986,-0.426382 -0.263388,-0.915362 -0.263388,-1.4693 0,-0.535044 0.08504,-1.00631 0.25512,-1.40789 0.168899,-0.402759 0.40394,-0.75355 0.705124,-1.05473 0.3189,-0.320081 0.716935,-0.571658 1.19883,-0.758274 0.47835,-0.184254 1.01221,-0.284648 1.60041,-0.301184 V 80.08883 h 1.17521 v 0.921268 c 0.584651,0.01181 1.11969,0.115749 1.60513,0.307089 0.485437,0.193702 0.883472,0.445279 1.1941,0.752369 0.29764,0.288191 0.531501,0.637801 0.703943,1.04883 0.171261,0.409846 0.256301,0.882291 0.256301,1.41379 z m -1.22481,-0.04606 c 0,-0.389767 -0.0626,-0.750006 -0.190159,-1.07717 C 77.367585,83.08413 77.188056,82.806569 76.955377,82.582157 76.727422,82.36247 76.474664,82.200658 76.19356,82.097901 75.914818,81.993963 75.567571,81.939632 75.14828,81.931364 v 5.26304 c 0.370869,-0.0083 0.707486,-0.06969 1.01103,-0.18071 0.303546,-0.112206 0.553942,-0.259845 0.750006,-0.44646 0.256301,-0.236222 0.448823,-0.526776 0.579926,-0.868118 0.128741,-0.343704 0.193702,-0.747644 0.193702,-1.213 z m -3.70987,2.70829 v -5.26304 c -0.419295,0.0047 -0.766542,0.05906 -1.04528,0.166537 -0.281105,0.1063 -0.533863,0.268112 -0.761817,0.484256 -0.227955,0.216144 -0.408665,0.493705 -0.535044,0.826779 -0.12756,0.335436 -0.192521,0.695675 -0.192521,1.07717 0,0.440555 0.06732,0.840952 0.198427,1.20001 0.131103,0.357877 0.323625,0.653155 0.575202,0.88111 0.192521,0.178348 0.442917,0.325987 0.747644,0.442917 0.305908,0.119292 0.643706,0.179529 1.01339,0.184254 z m -4.93232,1.80592 h -1.17639 v -4.31578 h -4.3772 v 4.31578 h -1.17639 v -8.81464 h 1.17639 v 3.45593 h 4.3772 v -3.45593 h 1.17639 z m -13.2733,0 h -1.11615 v -4.96303 l -3.44058,4.96303 h -1.02166 v -6.60832 h 1.11615 v 4.89335 l 3.40751,-4.89335 h 1.05473 z m -11.4485,2.0008 h -1.11497 v -2.02443 h -6.23273 v 2.02443 h -1.11615 v -3.04373 h 0.715754 c 0.513784,-0.844495 0.921268,-1.94529 1.22718,-3.30593 0.304727,-1.35946 0.458272,-2.84648 0.458272,-4.46579 h 5.22642 v 7.77172 h 0.836227 v 3.04373 z m -2.01262,-3.04373 v -6.7536 h -2.95869 c -0.05433,1.40907 -0.227955,2.69884 -0.517327,3.86814 -0.290554,1.17048 -0.66851,2.13191 -1.13151,2.88546 h 4.60752 z m -7.06659,1.04292 h -1.17639 v -4.31578 h -4.3772 v 4.31578 h -1.17639 v -8.81464 h 1.17639 v 3.45593 h 4.3772 v -3.45593 h 1.17639 z m -7.74573,-2.7142 c 0,0.439374 -0.08268,0.826779 -0.248034,1.16221 -0.165356,0.335436 -0.389767,0.612997 -0.670872,0.829141 -0.331893,0.259845 -0.695675,0.44646 -1.09371,0.557485 -0.395673,0.111025 -0.901189,0.165356 -1.513,0.165356 h -3.13113 v -8.81464 h 2.61498 c 0.644887,0 1.1256,0.0248 1.44804,0.07087 0.3189,0.04843 0.625989,0.145277 0.916543,0.295278 0.325987,0.17008 0.559847,0.387405 0.705124,0.654336 0.147639,0.264569 0.220868,0.584651 0.220868,0.954339 0,0.415752 -0.107481,0.771266 -0.3189,1.06654 -0.214962,0.292916 -0.49961,0.529138 -0.855125,0.707486 v 0.04843 c 0.596462,0.121655 1.06654,0.383861 1.41025,0.784259 0.343704,0.401578 0.514965,0.907094 0.514966,1.51891 z m -1.976,-3.96263 c 0,-0.210238 -0.03661,-0.387405 -0.107481,-0.532682 -0.07087,-0.144096 -0.183072,-0.261026 -0.342523,-0.351971 -0.184254,-0.105119 -0.411027,-0.172442 -0.675596,-0.196065 -0.262207,-0.02599 -0.590556,-0.03898 -0.982685,-0.03898 h -1.39607 v 2.52286 h 1.51537 c 0.366145,0 0.659061,-0.0189 0.875204,-0.05669 0.218506,-0.03661 0.418114,-0.113387 0.604729,-0.230317 0.185435,-0.11693 0.317719,-0.269294 0.394491,-0.454728 0.07677,-0.186616 0.114568,-0.406303 0.114568,-0.661423 z m 0.752369,4.00397 c 0,-0.351971 -0.05315,-0.633076 -0.160631,-0.840952 -0.1063,-0.207876 -0.298821,-0.386224 -0.579926,-0.529138 -0.190159,-0.09921 -0.420476,-0.164175 -0.688588,-0.192521 -0.270475,-0.03071 -0.600005,-0.04488 -0.986229,-0.04488 h -1.84135 v 3.26223 h 1.5508 c 0.512603,0 0.933079,-0.02598 1.26025,-0.07913 0.327168,-0.05433 0.596462,-0.151182 0.8067,-0.292916 0.219687,-0.151182 0.381499,-0.327168 0.485437,-0.523233 0.102757,-0.196065 0.153545,-0.448823 0.153545,-0.759455 z"/>
 </g>
</svg>
